<svg width="745" height="144" viewBox="0 0 745 144" xmlns="http://www.w3.org/2000/svg" xmlns:xlink="http://www.w3.org/1999/xlink" xmlns:sketch="http://www.bohemiancoding.com/sketch/ns"><title>Login</title><defs><filter x="-50%" y="-50%" width="200%" height="200%" filterUnits="objectBoundingBox" id="a"><feGaussianBlur in="SourceGraphic" result="blur"/></filter><path d="M107.997 55.113l-28.762-29.113-3.109.596-.688 8.598-9.704-9.194-20.815 1.475-8.325 4.293-1.998 8.405v9.794s13.336 11.695 11.829 11.695c-1.506 0-8.236 2.077-8.236 2.077l-6.505 4.708-1.684 9.88v3.735l26.531 26.879c28.448-1.325 51.149-24.865 51.465-53.829z" id="b"/><filter x="-50%" y="-50%" width="200%" height="200%" filterUnits="objectBoundingBox" id="c"><feGaussianBlur stdDeviation="21.0897197 -21.0897197" in="SourceGraphic" result="blur"/></filter></defs><g sketch:type="MSLayerGroup" fill="none"><g transform="translate(-426 -527) translate(426 527)"><rect fill-opacity=".743" fill="#fff" filter="url(#a)" sketch:type="MSShapeGroup" width="745" height="144" rx="8"/><text sketch:type="MSTextLayer" font-family="Avenir Next" font-size="54.545" font-weight="420" fill="#000"><tspan x="180" y="84">Connect with Google</tspan></text></g><g transform="translate(21 18)"><ellipse fill="#BD172B" sketch:type="MSShapeGroup" cx="54" cy="54.5" rx="54" ry="54.5"/><mask id="d" sketch:name="Path 11"><use xlink:href="#b"/></mask><use sketch:type="MSShapeGroup" xlink:href="#b"/><ellipse opacity=".507" fill="#650000" filter="url(#c)" sketch:type="MSShapeGroup" mask="url(#d)" cx="54" cy="54.5" rx="54" ry="54.5"/><path d="M76 39h-9v-4h9v-9h4v9h9v4h-9v9h-4v-9zm-21.521 11.203c6.162-3.151 9.635-9.589 7.993-15.715-.707-2.637-2.263-4.851-4.358-6.488h3.427l4.459-3h-15.208c-2.17-.289-4.478-.158-6.786.46-8.269 2.216-13.408 9.85-11.478 17.052 1.555 5.803 7.225 9.555 13.695 9.634-.296.771-.381 2.029.274 4.061.877 2.72 4.204 4.419 7.397 6.633-3.093-.956-6.745-1.26-10.565-.723-9.844 1.384-17.077 7.825-16.155 14.388.922 6.563 9.651 10.762 19.495 9.378 9.416-1.323 16.443-7.274 16.229-13.532 1.237-.668 2.279-1.377 2.075-1.781 0-8.895-4.952-10.837-10.333-15.1-3.365-3.992 1.711-5.47 1.711-5.47l-1.874.203zm-2.725.295c3.726-1.333 5.509-6.774 3.991-12.439-1.572-5.868-6.09-9.756-10.091-8.684-4.001 1.072-5.97 6.698-4.397 12.566 1.31 4.891 4.667 8.406 8.065 8.821l2.433-.264zm8.202 23.267c-.54 4.612-5.91 8.235-12.455 8.235-6.904 0-12.5-4.029-12.5-9s5.596-9 12.5-9c6.178 0 11.309 3.227 12.319 7.467-.042 1.475-.411 2.533-.411 2.533l.547-.235z" fill="#fff" sketch:type="MSShapeGroup"/></g></g></svg>